<?xml version="1.0" encoding="UTF-8"?>
<svg id="Capa_2" data-name="Capa 2" xmlns="http://www.w3.org/2000/svg" viewBox="0 0 1017.12 713.68">
  <defs>
    <style>
      .cls-1 {
        fill: #fff;
      }
    </style>
  </defs>
  <g id="Capa_1-2" data-name="Capa 1">
    <g>
      <path class="cls-1" d="M369.73,713.68c-1.25-3.03-1.96-3.95-1.97-4.89-.85-60.37-1.04-58.97-45.63-70.95-87.79-23.6-174.03-54.21-250.91-122.49-22.13-19.65-42.3-42.22-56.83-73.56-20.84-44.98-19.31-96.14,6.3-135.39,44.19-67.71,104.43-90.28,164.32-113.23-30.47,24.31-64.06,39.45-94.1,65.11-21.69,18.52-42.11,38.99-56.69,68.74-17.33,35.34-14.36,71.26,6.96,102.36,23.08,33.66,51.51,54.88,82.01,71.25,74.03,39.74,151.38,57.69,229.68,70.36,17.15,2.78,23.85-2.8,22.91-27.22-.38-9.99,1.77-20.16,3.25-35.05,38.44,36.53,74.99,71.23,111.51,106.01,10.77,10.26,4.66,15.72-3.06,20.83-39.31,26.04-78.6,52.16-117.74,78.14Z"/>
      <path class="cls-1" d="M891.13,278.94c-3.41,43.46-5.11,83.17-20.17,120.82-20.04,50.11-53.91,78.42-99.18,77.67-47.96-.79-78.38-31.39-93.23-75.78-27.81-83.12-28.7-167.72,4.66-249.88,17.7-43.58,50.11-66.07,96.13-65.71,43.15.34,68.23,25.96,86.76,63.86,20.46,41.86,21.51,87.43,25.02,129.02ZM817.06,278.62c2.42-35.64.49-70.78-14.59-103.52-5.28-11.46-12.64-21.8-26.38-21.84-14.47-.04-25.08,8.41-29.66,22.1-23.03,68.91-21.91,138.59-1.46,207.69,4.43,14.97,15.86,28.29,33.76,26.23,15.9-1.83,23.36-14.41,27.46-29.59,8.91-33.02,15.53-66.34,10.87-101.07Z"/>
      <path class="cls-1" d="M470.81,247.45c38.58-38.69,76.81-38.98,112.23-15.99,43.35,28.13,51.78,77.14,47.35,126.46-6.05,67.33-49.43,113.98-105.04,119.56-52.92,5.31-97.11-29.92-118.68-94.63-29.27-87.79,1.41-205.57,67.82-261.15,24.39-20.41,52.98-29.55,82.8-33.61,36.97-5.03,39.98-.76,41.61,37.96.8,19.02-2.27,27.99-23.68,29.28-45.43,2.75-82.76,22.57-100.49,71.48-1.43,3.93-1.64,8.36-3.92,20.63ZM559.45,344.79c-2.61-28.75-6.56-55.4-36.02-63.42-22.63-6.17-39.65,5.23-50.56,26.24-11.27,21.7-1.16,76.47,16.3,92.6,21.52,19.88,53.41,11.82,62.97-16.95,4.23-12.72,5.17-26.68,7.31-38.47Z"/>
      <path class="cls-1" d="M841.83,197.75c55.86,18.4,109.67,43.31,150.06,103.33,35.08,52.15,33.09,114.94-2.97,167.16-30.47,44.14-67.51,74.26-107.47,97.19-109.75,62.98-225.05,90.54-342.38,105.07-10.55,1.31-15.43-2.41-14.75-17.61.05-1.14.11-2.29.07-3.42-2.37-67.16-2.4-69.3,50.36-70.79,78.82-2.22,156.9-12.3,233.45-38.63,58.13-20,117.16-40.05,162.45-100.66,33.83-45.29,32.42-92.43-1.31-138.93-32.56-44.88-73.71-69.06-114.36-94.49-4.38-2.74-8.76-5.48-13.14-8.22Z"/>
      <path class="cls-1" d="M297.15,269.54c45.69,21.96,61.36,59.02,56.58,107.09-4.69,47.08-30.27,77.42-71.5,91.37-40.91,13.83-82.12,11.86-122.54-4.75-37.91-15.58-11.53-42.95-8.09-63.11,4.01-23.48,19.83-4.09,30.18-2.35,10.48,1.76,20.45,7,30.93,8.76,35.34,5.91,65.23-14.11,68.12-44.75,3.06-32.5-23.3-61.2-60.29-58.63-27.86,1.94-30.96-9.55-31.11-34.6-.14-24.01,5.63-32.39,28.62-29.37,16.25,2.14,31.72-4.82,43.39-18.13,19.87-22.65,12.86-51.96-14.59-62.52-23.01-8.85-45.17-2.49-64.98,8.38-17.89,9.81-21.14,2.4-24.79-13.82-10.02-44.54-10.27-43.84,31.63-58.44,40.59-14.15,80.99-14.6,117.84,8.36,53.11,33.09,49.05,109.21-9.41,166.52Z"/>
      <path class="cls-1" d="M952.03,51.93c-.38,26.92-25.32,51.79-50.66,50.54-21.24-1.05-43.72-26.59-44.21-50.23C856.63,26.81,879.73.26,902.6,0c25.77-.29,49.81,24.97,49.43,51.93ZM924.95,50.38c-2.66-12.11-9-21.75-21.33-21.32-12.16.42-19.79,9.57-19.46,22.66.32,13.06,8.56,22.27,20.46,21.76,11.64-.5,18.46-10.21,20.33-23.1Z"/>
    </g>
  </g>
</svg>