<svg width="93" height="96" viewBox="0 0 93 96" fill="none" xmlns="http://www.w3.org/2000/svg">
<g filter="url(#filter0_i_47_62)">
<path d="M46 87.5C46.4817 87.5 46.8857 87.3368 47.2121 87.0104C47.5385 86.684 47.7011 86.2805 47.7 85.8V79C47.7 78.5183 47.5368 78.1149 47.2104 77.7896C46.884 77.4643 46.4805 77.3011 46 77.3C45.5195 77.2989 45.116 77.4621 44.7896 77.7896C44.4632 78.1171 44.3 78.5206 44.3 79V85.8C44.3 86.2817 44.4632 86.6857 44.7896 87.0121C45.116 87.3385 45.5195 87.5011 46 87.5ZM46 73.9C46.4817 73.9 46.8857 73.7368 47.2121 73.4104C47.5385 73.084 47.7011 72.6805 47.7 72.2C47.6989 71.7195 47.5357 71.316 47.2104 70.9896C46.8851 70.6632 46.4817 70.5 46 70.5C45.5183 70.5 45.1149 70.6632 44.7896 70.9896C44.4643 71.316 44.3011 71.7195 44.3 72.2C44.2989 72.6805 44.4621 73.0846 44.7896 73.4121C45.1171 73.7396 45.5206 73.9023 46 73.9ZM46 96C43.6483 96 41.4383 95.5535 39.37 94.6604C37.3017 93.7673 35.5025 92.5564 33.9725 91.0275C32.4425 89.4986 31.2315 87.6995 30.3396 85.63C29.4477 83.5605 29.0011 81.3505 29 79C28.9989 76.6495 29.4454 74.4395 30.3396 72.37C31.2338 70.3005 32.4448 68.5014 33.9725 66.9725C35.5002 65.4436 37.2994 64.2327 39.37 63.3396C41.4406 62.4465 43.6506 62 46 62C48.3494 62 50.5594 62.4465 52.63 63.3396C54.7006 64.2327 56.4998 65.4436 58.0275 66.9725C59.5552 68.5014 60.7667 70.3005 61.6621 72.37C62.5574 74.4395 63.0034 76.6495 63 79C62.9966 81.3505 62.55 83.5605 61.6604 85.63C60.7707 87.6995 59.5598 89.4986 58.0275 91.0275C56.4952 92.5564 54.6961 93.7679 52.63 94.6621C50.5639 95.5563 48.3539 96.0023 46 96ZM46 92.6C49.7967 92.6 53.0125 91.2825 55.6475 88.6475C58.2825 86.0125 59.6 82.7967 59.6 79C59.6 75.2033 58.2825 71.9875 55.6475 69.3525C53.0125 66.7175 49.7967 65.4 46 65.4C42.2033 65.4 38.9875 66.7175 36.3525 69.3525C33.7175 71.9875 32.4 75.2033 32.4 79C32.4 82.7967 33.7175 86.0125 36.3525 88.6475C38.9875 91.2825 42.2033 92.6 46 92.6Z" fill="#D1CFCA"/>
</g>
<g filter="url(#filter1_i_47_62)">
<path fill-rule="evenodd" clip-rule="evenodd" d="M41.3341 2.18682L5.05241 39.2742C2.24427 42.1447 2.24427 46.733 5.05241 49.6035C7.94913 52.5645 12.7143 52.5645 15.611 49.6035L42.211 22.4127C44.5644 20.0071 48.4356 20.0071 50.789 22.4127L77.389 49.6035C80.2857 52.5645 85.0509 52.5645 87.9476 49.6035C90.7557 46.733 90.7557 42.1447 87.9476 39.2742L51.6659 2.18682C50.2956 0.786602 48.4375 0 46.5 0C44.5625 0 42.7044 0.786602 41.3341 2.18682Z" fill="#D1CFCA"/>
</g>
<defs>
<filter id="filter0_i_47_62" x="28" y="62" width="35" height="38" filterUnits="userSpaceOnUse" color-interpolation-filters="sRGB">
<feFlood flood-opacity="0" result="BackgroundImageFix"/>
<feBlend mode="normal" in="SourceGraphic" in2="BackgroundImageFix" result="shape"/>
<feColorMatrix in="SourceAlpha" type="matrix" values="0 0 0 0 0 0 0 0 0 0 0 0 0 0 0 0 0 0 127 0" result="hardAlpha"/>
<feOffset dx="-1" dy="4"/>
<feGaussianBlur stdDeviation="2"/>
<feComposite in2="hardAlpha" operator="arithmetic" k2="-1" k3="1"/>
<feColorMatrix type="matrix" values="0 0 0 0 0 0 0 0 0 0 0 0 0 0 0 0 0 0 0.17 0"/>
<feBlend mode="normal" in2="shape" result="effect1_innerShadow_47_62"/>
</filter>
<filter id="filter1_i_47_62" x="1.94629" y="0" width="88.1074" height="55.8242" filterUnits="userSpaceOnUse" color-interpolation-filters="sRGB">
<feFlood flood-opacity="0" result="BackgroundImageFix"/>
<feBlend mode="normal" in="SourceGraphic" in2="BackgroundImageFix" result="shape"/>
<feColorMatrix in="SourceAlpha" type="matrix" values="0 0 0 0 0 0 0 0 0 0 0 0 0 0 0 0 0 0 127 0" result="hardAlpha"/>
<feOffset dx="-1" dy="4"/>
<feGaussianBlur stdDeviation="2"/>
<feComposite in2="hardAlpha" operator="arithmetic" k2="-1" k3="1"/>
<feColorMatrix type="matrix" values="0 0 0 0 0 0 0 0 0 0 0 0 0 0 0 0 0 0 0.17 0"/>
<feBlend mode="normal" in2="shape" result="effect1_innerShadow_47_62"/>
</filter>
</defs>
</svg>
